<svg width="24" height="32" viewBox="0 0 24 32" fill="none" xmlns="http://www.w3.org/2000/svg">
<g clip-path="url(#clip0_8_612)">
<path fill-rule="evenodd" clip-rule="evenodd" d="M21 12.25H16.4438L17.2378 7.88406C17.3042 7.4802 17.0345 7.0977 16.6318 7.02453C16.2291 6.95136 15.8421 7.21454 15.7622 7.61594L14.9184 12.25H10.4438L11.2378 7.88406C11.3042 7.4802 11.0345 7.0977 10.6318 7.02453C10.2291 6.95136 9.84214 7.21454 9.76219 7.61594L8.91938 12.25H4.5C4.08579 12.25 3.75 12.5858 3.75 13C3.75 13.4142 4.08579 13.75 4.5 13.75H8.64656L7.82812 18.25H3C2.58579 18.25 2.25 18.5858 2.25 19C2.25 19.4142 2.58579 19.75 3 19.75H7.55625L6.76219 24.1159C6.68821 24.5234 6.95849 24.9137 7.36594 24.9878C7.41015 24.996 7.45503 25.0001 7.5 25C7.86211 24.9995 8.17215 24.7403 8.23687 24.3841L9.08062 19.75H13.5562L12.7622 24.1159C12.6882 24.5234 12.9585 24.9137 13.3659 24.9878C13.4102 24.996 13.455 25.0001 13.5 25C13.8621 24.9995 14.1721 24.7403 14.2369 24.3841L15.0806 19.75H19.5C19.9142 19.75 20.25 19.4142 20.25 19C20.25 18.5858 19.9142 18.25 19.5 18.25H15.3534L16.1719 13.75H21C21.4142 13.75 21.75 13.4142 21.75 13C21.75 12.5858 21.4142 12.25 21 12.25ZM13.8281 18.25H9.35344L10.1719 13.75H14.6466L13.8281 18.25Z" fill="#737373"/>
</g>
<defs>
<clipPath id="clip0_8_612">
<rect width="24" height="24" fill="white" transform="translate(0 4)"/>
</clipPath>
</defs>
</svg>
