<svg width="9" height="9" viewBox="0 0 9 9" fill="none" xmlns="http://www.w3.org/2000/svg">
<path d="M4.16667 7.51042C3.9375 7.51042 3.74132 7.42708 3.57813 7.26042C3.41493 7.09375 3.33333 6.89583 3.33333 6.66667C3.33333 6.4375 3.41493 6.24132 3.57813 6.07813C3.74132 5.91493 3.9375 5.83333 4.16667 5.83333L4.41667 5.59375C4.47222 5.53819 4.53646 5.49479 4.60938 5.46354C4.68229 5.43229 4.75694 5.41667 4.83333 5.41667C4.99306 5.41667 5.13021 5.47569 5.24479 5.59375C5.35938 5.71181 5.41667 5.85069 5.41667 6.01042V6.1875C5.41667 6.32639 5.46181 6.44097 5.55208 6.53125C5.64236 6.62153 5.75695 6.66667 5.89583 6.66667C6 6.66667 6.09375 6.63542 6.17708 6.57292C6.26042 6.51042 6.31944 6.43056 6.35417 6.33333L6.47917 5.98958C6.54167 5.82292 6.64236 5.68576 6.78125 5.57812C6.92014 5.47049 7.07986 5.41667 7.26042 5.41667C7.33681 5.22222 7.39757 5.02083 7.44271 4.8125C7.48785 4.60417 7.51042 4.38889 7.51042 4.16667C7.51042 3.54861 7.3559 2.98438 7.04688 2.47396C6.73785 1.96354 6.33333 1.5625 5.83333 1.27083V1.66667C5.83333 1.89583 5.75174 2.09201 5.58854 2.25521C5.42535 2.4184 5.22917 2.5 5 2.5H4.58333V3.33333C4.58333 3.45139 4.5434 3.55035 4.46354 3.63021C4.38368 3.71007 4.28472 3.75 4.16667 3.75H3.75V4.45833C3.75 4.61111 3.69792 4.73958 3.59375 4.84375C3.48958 4.94792 3.36111 5 3.20833 5C3.11111 5 3.02257 4.97917 2.94271 4.9375C2.86285 4.89583 2.79861 4.83681 2.75 4.76042L2.08333 3.75H1.66667V4.16667C1.66667 4.38194 1.59375 4.56597 1.44792 4.71875C1.30208 4.87153 1.12847 4.96181 0.927083 4.98958C1.10764 5.71181 1.49826 6.3125 2.09896 6.79167C2.69965 7.27083 3.38889 7.51042 4.16667 7.51042ZM5 5C4.88194 5 4.78299 4.96007 4.70313 4.88021C4.62326 4.80035 4.58333 4.70139 4.58333 4.58333C4.58333 4.46528 4.62326 4.36632 4.70313 4.28646C4.78299 4.2066 4.88194 4.16667 5 4.16667H5.41667C5.53472 4.16667 5.63368 4.2066 5.71354 4.28646C5.7934 4.36632 5.83333 4.46528 5.83333 4.58333C5.83333 4.70139 5.7934 4.80035 5.71354 4.88021C5.63368 4.96007 5.53472 5 5.41667 5H5ZM5.96875 3.75C5.82986 3.75 5.72049 3.69618 5.64063 3.58854C5.56076 3.4809 5.54167 3.36111 5.58333 3.22917L5.73958 2.77083C5.76736 2.6875 5.81597 2.62153 5.88542 2.57292C5.95486 2.52431 6.03125 2.5 6.11458 2.5C6.25347 2.5 6.36285 2.55382 6.44271 2.66146C6.52257 2.7691 6.54167 2.88889 6.5 3.02083L6.34375 3.47917C6.31597 3.5625 6.26736 3.62847 6.19792 3.67708C6.12847 3.72569 6.05208 3.75 5.96875 3.75ZM4.16667 8.33333C3.59028 8.33333 3.04861 8.22396 2.54167 8.00521C2.03472 7.78646 1.59375 7.48958 1.21875 7.11458C0.84375 6.73958 0.546875 6.29861 0.328125 5.79167C0.109375 5.28472 0 4.74306 0 4.16667C0 3.59028 0.109375 3.04861 0.328125 2.54167C0.546875 2.03472 0.84375 1.59375 1.21875 1.21875C1.59375 0.84375 2.03472 0.546875 2.54167 0.328125C3.04861 0.109375 3.59028 0 4.16667 0C4.74306 0 5.28472 0.109375 5.79167 0.328125C6.29861 0.546875 6.73958 0.84375 7.11458 1.21875C7.48958 1.59375 7.78646 2.03472 8.00521 2.54167C8.22396 3.04861 8.33333 3.59028 8.33333 4.16667C8.33333 4.74306 8.22396 5.28472 8.00521 5.79167C7.78646 6.29861 7.48958 6.73958 7.11458 7.11458C6.73958 7.48958 6.29861 7.78646 5.79167 8.00521C5.28472 8.22396 4.74306 8.33333 4.16667 8.33333Z" fill="#16A99F"/>
</svg>
