<svg width="28" height="28" viewBox="0 0 28 28" fill="none" xmlns="http://www.w3.org/2000/svg">
<path d="M19.0554 2.33331C23.0096 2.33331 25.6658 5.10826 25.6658 9.23663V18.764C25.6657 22.8922 23.0097 25.6663 19.0544 25.6663H8.94312C4.98911 25.6662 2.33284 22.8922 2.33276 18.764V9.23663C2.33276 5.10832 4.98905 2.3334 8.94312 2.33331H19.0554ZM20.3425 14.6419C19.0922 13.8619 18.1266 14.9574 17.866 15.3079C17.6149 15.6462 17.3982 16.0196 17.1707 16.3929C16.6147 17.3138 15.9773 18.3759 14.8748 18.9935C13.2727 19.8803 12.0555 19.0628 11.1804 18.4681C10.8523 18.2468 10.5331 18.0374 10.2156 17.8978C9.43195 17.5595 8.72678 17.9447 7.68042 19.2737C7.1314 19.9684 6.58628 20.6568 6.03491 21.3431C5.70525 21.7536 5.78462 22.3869 6.22925 22.6614C6.93891 23.0983 7.80479 23.3333 8.78296 23.3333H18.615C19.1698 23.3333 19.7265 23.2576 20.2566 23.0843C21.4505 22.6942 22.3982 21.8009 22.8933 20.6214C23.3109 19.6294 23.5142 18.4248 23.1238 17.4232C22.9936 17.091 22.7983 16.7811 22.5251 16.5091C21.8087 15.7978 21.1387 15.133 20.3425 14.6419ZM9.91479 7.00031C8.30638 7.00031 6.99976 8.30932 6.99976 9.9173C7.00008 11.525 8.30657 12.8333 9.91479 12.8333C11.5216 12.833 12.8295 11.5248 12.8298 9.9173C12.8298 8.30951 11.5218 7.00063 9.91479 7.00031Z" fill="#04332D"/>
</svg>
